<?xml version="1.0" encoding="UTF-8"?> <!-- Generator: Adobe Illustrator 16.0.0, SVG Export Plug-In . SVG Version: 6.00 Build 0) --> <svg xmlns="http://www.w3.org/2000/svg" xmlns:xlink="http://www.w3.org/1999/xlink" version="1.1" id="Layer_1" x="0px" y="0px" width="204px" height="45px" viewBox="0 0 204 45" xml:space="preserve"> <g> <polygon fill="#008BA6" points="39.5,13.385 34.983,13.39 34.983,20.911 39.5,20.904 40.367,20.904 40.367,15.519 39.5,15.519 "></polygon> <polygon fill="#231F20" points="49.121,11.983 49.121,6.6 34.117,6.632 34.117,20.913 34.984,20.911 39.501,20.902 40.368,20.902 47.304,20.902 47.304,15.519 40.368,15.519 39.501,15.519 39.501,13.385 39.501,11.983 "></polygon> <polygon fill="#808184" points="40.367,29.994 40.367,20.902 40.367,15.519 40.367,13.384 39.5,13.385 34.983,13.39 34.983,20.911 34.983,29.98 "></polygon> <rect x="52.37" y="15.706" fill="#BCA532" width="4.581" height="7.138"></rect> <polygon fill="#A6A8AB" points="56.951,22.844 56.951,15.705 56.951,6.579 51.567,6.579 51.567,22.844 52.369,22.844 "></polygon> <polygon fill="#231F20" points="57.752,29.994 57.752,15.705 56.951,15.705 52.369,15.705 52.369,22.844 52.369,29.994 "></polygon> <polygon fill="#BCA532" points="67.941,9.912 63.28,9.912 72.278,26.031 76.922,26.031 "></polygon> <polygon fill="#808184" points="76.922,26.031 67.942,9.911 66.138,6.675 60.276,6.675 60.276,29.994 65.661,29.994 65.661,16.358 71.092,26.031 72.278,26.031 "></polygon> <polygon fill="#231F20" points="80.32,29.994 80.32,6.611 74.936,6.611 74.936,20.278 69.14,9.911 67.941,9.911 63.279,9.911 72.278,26.031 74.491,29.994 "></polygon> <polygon fill="#231F20" points="127.657,18.601 125.665,12.519 123.729,6.611 118.632,6.611 110.669,29.992 116.37,29.992 117.326,27.158 119.173,21.774 121.117,16.106 121.932,18.603 122.607,18.603 "></polygon> <polygon fill="#808184" points="131.933,29.994 126.329,12.518 125.665,12.519 120.668,12.529 122.607,18.603 123.619,21.774 119.174,21.774 116.347,21.774 114.5,27.158 117.326,27.158 125.339,27.158 126.263,29.994 "></polygon> <polygon fill="#913186" points="139.911,17.572 135.782,17.572 135.782,27.303 141.167,27.303 141.167,24.609 139.911,24.609 "></polygon> <polygon fill="#A6A8AB" points="148.448,29.994 148.448,24.609 141.166,24.609 139.911,24.609 139.911,17.572 135.783,17.572 134.528,17.572 134.528,29.994 "></polygon> <polygon fill="#231F20" points="141.166,27.303 141.166,24.609 141.166,6.58 135.782,6.58 135.782,17.572 135.782,27.303 "></polygon> <rect x="156.897" y="7.421" fill="#008BA6" width="4.134" height="5.383"></rect> <polygon fill="#231F20" points="161.031,29.994 161.031,12.804 161.031,7.42 161.031,6.516 151.188,6.516 151.188,11.899 155.647,11.899 155.647,29.994 "></polygon> <polygon fill="#808184" points="165.835,12.804 165.835,7.42 161.031,7.42 156.898,7.42 156.898,12.804 161.031,12.804 "></polygon> <polygon fill="#231F20" points="185.453,18.601 183.461,12.519 181.525,6.611 176.429,6.611 168.465,29.992 174.167,29.992 175.123,27.158 176.971,21.774 178.913,16.106 179.729,18.603 180.403,18.603 "></polygon> <polygon fill="#A6A8AB" points="189.729,29.994 184.126,12.518 183.461,12.519 178.465,12.529 180.403,18.603 181.416,21.774 176.971,21.774 174.144,21.774 172.296,27.158 175.123,27.158 183.136,27.158 184.06,29.994 "></polygon> <polygon fill="#A6A8AB" points="107.955,29.994 106.586,6.579 101.043,6.579 96.041,21.233 92.888,12.202 91.89,12.202 87.346,12.202 91.474,24.402 93.365,29.994 98.749,29.994 101.998,20.436 102.571,29.994 "></polygon> <polygon fill="#231F20" points="96.229,24.402 91.89,12.203 89.891,6.579 84.348,6.579 82.85,29.994 88.266,29.994 88.903,20.054 90.417,24.402 91.475,24.402 "></polygon> <polygon fill="#913186" points="23.985,9.299 15.758,24.627 20.016,24.609 28.25,9.321 "></polygon> <polygon fill="#A6A8AB" points="31.545,24.609 21.894,24.609 30.106,9.332 28.25,9.321 23.986,9.299 15.758,24.629 12.879,29.994 31.545,29.994 "></polygon> <path fill="#231F20" d="M29.796,6.452l-17.52-0.032v5.384h8.505l-6.899,12.831l1.876-0.008l4.259-0.018L28.25,9.322L29.796,6.452z M19.54,4.991h2.992V2H19.54V4.991z"></path> <g> <defs> <rect id="SVGID_1_" x="-435.686" y="-405.958" width="1190.55" height="841.89"></rect> </defs> <clipPath id="SVGID_2_"> <use xlink:href="#SVGID_1_" overflow="visible"></use> </clipPath> <path clip-path="url(#SVGID_2_)" fill="#231F20" d="M160.962,35.859h-0.62l-1.257,2.58l-1.271-2.58h-0.619l1.604,3.164v2.225 h0.574v-2.225L160.962,35.859z M154.742,41.248v-5.389h-0.574v4.305l-2.859-4.305h-0.545v5.389h0.574v-4.32l2.86,4.32H154.742z M147.087,39.529h-2.013l1.015-2.846L147.087,39.529z M148.297,41.248l-1.975-5.389h-0.483l-1.983,5.389h0.613l0.432-1.219h2.354 l0.431,1.219H148.297z M141.669,37.443c0,0.709-0.462,1.072-1.136,1.072h-1.385v-2.143h1.385 C141.207,36.373,141.669,36.73,141.669,37.443 M142.243,37.443c0-0.963-0.688-1.584-1.665-1.584h-2.004v5.389h0.574v-2.219h1.43 C141.555,39.029,142.243,38.402,142.243,37.443 M135.641,41.248v-5.389h-0.575l-1.71,3.82l-1.755-3.82h-0.575v5.389h0.575v-4.094 l1.498,3.244h0.491l1.476-3.244v4.094H135.641z M127.686,38.553c0,1.105-0.037,1.498-0.378,1.846 c-0.25,0.25-0.567,0.379-0.931,0.379c-0.362,0-0.68-0.129-0.931-0.379c-0.34-0.348-0.379-0.74-0.379-1.846 c0-1.104,0.039-1.498,0.379-1.846c0.251-0.25,0.568-0.377,0.931-0.377c0.363,0,0.681,0.127,0.931,0.377 C127.648,37.055,127.686,37.449,127.686,38.553 M128.261,38.553c0-1.232-0.037-1.703-0.544-2.207 c-0.333-0.334-0.779-0.531-1.34-0.531s-1.015,0.197-1.348,0.531c-0.507,0.504-0.535,0.975-0.535,2.207s0.028,1.703,0.535,2.209 c0.333,0.334,0.787,0.529,1.348,0.529s1.007-0.195,1.34-0.529C128.224,40.256,128.261,39.785,128.261,38.553 M121.94,39.689 h-0.574c-0.144,0.666-0.62,1.088-1.293,1.088c-0.364,0-0.682-0.129-0.931-0.379c-0.342-0.348-0.379-0.74-0.379-1.846 c0-1.104,0.037-1.498,0.379-1.846c0.249-0.25,0.566-0.377,0.931-0.377c0.673,0,1.135,0.422,1.278,1.088h0.589 c-0.188-1.006-0.893-1.604-1.867-1.604c-0.561,0-1.015,0.197-1.348,0.531c-0.507,0.504-0.537,0.975-0.537,2.207 s0.03,1.703,0.537,2.209c0.333,0.334,0.787,0.529,1.348,0.529C121.041,41.291,121.752,40.693,121.94,39.689 M113.854,41.248 v-0.516h-2.769v-1.943h2.36v-0.516h-2.36v-1.9h2.769v-0.514h-3.344v5.389H113.854z M107.846,39.689h-0.573 c-0.145,0.666-0.621,1.088-1.294,1.088c-0.363,0-0.682-0.129-0.931-0.379c-0.341-0.348-0.379-0.74-0.379-1.846 c0-1.104,0.038-1.498,0.379-1.846c0.249-0.25,0.567-0.377,0.931-0.377c0.673,0,1.135,0.422,1.278,1.088h0.589 c-0.188-1.006-0.892-1.604-1.867-1.604c-0.561,0-1.014,0.197-1.347,0.531c-0.507,0.504-0.538,0.975-0.538,2.207 s0.031,1.703,0.538,2.209c0.333,0.334,0.786,0.529,1.347,0.529C106.946,41.291,107.658,40.693,107.846,39.689 M101.32,41.248 v-5.389h-0.575v4.305l-2.86-4.305h-0.544v5.389h0.575v-4.32l2.859,4.32H101.32z M93.664,39.529h-2.012l1.015-2.846L93.664,39.529z M94.875,41.248L92.9,35.859h-0.483l-1.983,5.389h0.613l0.431-1.219h2.354l0.431,1.219H94.875z M87.755,38.553 c0,0.75-0.008,1.414-0.355,1.787c-0.272,0.301-0.65,0.393-1.06,0.393h-1.172v-4.359h1.172c0.409,0,0.787,0.092,1.06,0.395 C87.747,37.139,87.755,37.805,87.755,38.553 M88.33,38.553c0-0.826,0-1.611-0.478-2.125c-0.362-0.393-0.809-0.568-1.414-0.568 h-1.847v5.389h1.847c0.605,0,1.052-0.176,1.414-0.568C88.33,40.164,88.33,39.379,88.33,38.553 M80.243,41.248v-0.516h-2.754 v-4.873h-0.575v5.389H80.243z M73.238,39.529h-2.013l1.014-2.846L73.238,39.529z M74.448,41.248l-1.974-5.389h-0.484l-1.982,5.389 h0.614l0.43-1.219h2.353l0.431,1.219H74.448z M67.542,41.248v-5.389h-0.575v4.305l-2.86-4.305h-0.545v5.389h0.576v-4.32l2.86,4.32 H67.542z M60.223,38.553c0,1.105-0.038,1.498-0.378,1.846c-0.25,0.25-0.567,0.379-0.93,0.379c-0.363,0-0.681-0.129-0.931-0.379 c-0.341-0.348-0.378-0.74-0.378-1.846c0-1.104,0.038-1.498,0.378-1.846c0.25-0.25,0.567-0.377,0.931-0.377 c0.363,0,0.681,0.127,0.93,0.377C60.185,37.055,60.223,37.449,60.223,38.553 M60.797,38.553c0-1.232-0.038-1.703-0.544-2.207 c-0.334-0.334-0.78-0.531-1.339-0.531c-0.56,0-1.015,0.197-1.347,0.531c-0.508,0.504-0.538,0.975-0.538,2.207 s0.03,1.703,0.538,2.209c0.332,0.334,0.787,0.529,1.347,0.529c0.559,0,1.005-0.195,1.339-0.529 C60.76,40.256,60.797,39.785,60.797,38.553 M54.263,35.859h-0.575v5.389h0.575V35.859z M51.159,36.373v-0.514h-3.693v0.514h1.56 v4.875H49.6v-4.875H51.159z M44.856,39.529h-2.013l1.014-2.846L44.856,39.529z M46.066,41.248l-1.973-5.389h-0.485l-1.982,5.389 h0.614l0.431-1.219h2.353l0.431,1.219H46.066z M39.16,41.248v-5.389h-0.576v4.305l-2.859-4.305h-0.544v5.389h0.574v-4.32 l2.86,4.32H39.16z"></path> </g> </g> </svg> 